<mxfile host="app.diagrams.net" modified="2021-08-20T03:01:32.568Z" agent="5.0 (Windows NT 10.0; Win64; x64) AppleWebKit/537.36 (KHTML, like Gecko) Chrome/92.0.4515.159 Safari/537.36" etag="xmyQzhnikRbJthMaRAk8" version="14.5.10" type="github">
  <diagram id="Ts5z4XYJm1H27oE-OFuG" name="Page-1">
    <mxGraphModel dx="1038" dy="547" grid="1" gridSize="10" guides="1" tooltips="1" connect="1" arrows="1" fold="1" page="1" pageScale="1" pageWidth="827" pageHeight="1169" math="0" shadow="0">
      <root>
        <mxCell id="0" />
        <mxCell id="1" parent="0" />
        <mxCell id="F56uMYZzZ8aX_lG4rJDm-2" value="浏览器" style="rounded=0;whiteSpace=wrap;html=1;" vertex="1" parent="1">
          <mxGeometry x="230" y="320" width="120" height="40" as="geometry" />
        </mxCell>
        <mxCell id="F56uMYZzZ8aX_lG4rJDm-3" value="服务器" style="rounded=0;whiteSpace=wrap;html=1;" vertex="1" parent="1">
          <mxGeometry x="414" y="320" width="120" height="40" as="geometry" />
        </mxCell>
        <mxCell id="F56uMYZzZ8aX_lG4rJDm-4" value="管理员操作监控界面" style="rounded=0;whiteSpace=wrap;html=1;" vertex="1" parent="1">
          <mxGeometry x="250" y="410" width="80" height="40" as="geometry" />
        </mxCell>
        <mxCell id="F56uMYZzZ8aX_lG4rJDm-5" value="" style="endArrow=classic;html=1;exitX=1;exitY=0.5;exitDx=0;exitDy=0;" edge="1" parent="1" source="F56uMYZzZ8aX_lG4rJDm-4">
          <mxGeometry width="50" height="50" relative="1" as="geometry">
            <mxPoint x="390" y="500" as="sourcePoint" />
            <mxPoint x="440" y="430" as="targetPoint" />
          </mxGeometry>
        </mxCell>
        <mxCell id="F56uMYZzZ8aX_lG4rJDm-6" value="&lt;p class=&quot;MsoNormal&quot;&gt;&lt;span style=&quot;font-size: 12.0000pt&quot;&gt;sql语句&lt;font face=&quot;宋体&quot;&gt;监控，&lt;/font&gt;&lt;font face=&quot;Times New Roman&quot;&gt;Hadoop&lt;/font&gt;&lt;font face=&quot;宋体&quot;&gt;监控&lt;/font&gt;&lt;/span&gt;&lt;/p&gt;" style="rounded=0;whiteSpace=wrap;html=1;" vertex="1" parent="1">
          <mxGeometry x="440" y="410" width="110" height="40" as="geometry" />
        </mxCell>
        <mxCell id="F56uMYZzZ8aX_lG4rJDm-19" value="" style="endArrow=classic;html=1;exitX=0.411;exitY=1.125;exitDx=0;exitDy=0;exitPerimeter=0;" edge="1" parent="1" source="F56uMYZzZ8aX_lG4rJDm-6">
          <mxGeometry width="50" height="50" relative="1" as="geometry">
            <mxPoint x="400" y="520" as="sourcePoint" />
            <mxPoint x="330" y="500" as="targetPoint" />
          </mxGeometry>
        </mxCell>
        <mxCell id="F56uMYZzZ8aX_lG4rJDm-20" value="显示可视化的页面" style="rounded=0;whiteSpace=wrap;html=1;" vertex="1" parent="1">
          <mxGeometry x="250" y="480" width="80" height="40" as="geometry" />
        </mxCell>
      </root>
    </mxGraphModel>
  </diagram>
</mxfile>
